<svg height="960" viewBox="0 0 960 960" width="960" xmlns="http://www.w3.org/2000/svg"><g fill="none" fill-rule="evenodd" stroke="#000" stroke-linejoin="round"><path d="m422.421267 165.292602v306.134109l182.485184-11.255883 7.22034-289.57478z" stroke-linecap="round" stroke-width="20"/><path d="m328.521032 22.7335472c41.093735-3.0274012 83.661652-2.8643969 127.703367.5046911l2.044254.1563393c69.820002 5.3389479 104.528696 8.3954212 156.249321 32.9771317 21.740605 10.3328464 37.258003 18.462358 46.601488 24.30295 11.987156 7.5503424 18.852048 19.7095367 19.520774 32.8791697 6.068743 119.515317 10.698788 214.318811 13.890377 284.412668l.230972 5.08492c.609493 13.451286 1.16417 25.961024 1.664036 37.529213 3.324171 76.929805 2.062777 138.44522.960595 191.855136-.48671 23.585118-.941949 45.569189-.941949 66.597986 0 41.32775-21.606296 104.426336-59.674214 155.307955-30.94492 41.361012-72.403856 74.106191-120.145328 82.749202-44.09221 7.982356-84.989215-2.988041-120.033503-22.524461-49.602126-27.652094-87.006247-72.523009-104.250868-100.155671-28.380849-45.477276-33.745804-111.810353-29.525484-214.462697.924588-22.489089 1.76642-48.38604 2.678054-76.420202 3.024679-93.013516 6.829494-209.385766 16.845019-303.366317 8.144625-76.424978 14.931303-133.8471017 20.353443-172.2741299l.164187-1.160718c.924406-6.5189483 4.057587-12.2753655 8.601257-16.5229828 4.543671-4.2476173 10.497832-6.9864346 17.064202-7.4701831z" stroke-width="40"/><g stroke-linecap="round" stroke-width="20"><path d="m485.186438 889.524382c76.456472 16.251325 155.860766-52.548209 177.354454-153.66806 21.493687-101.11985-23.062453-196.267987-99.518925-212.519312-76.456473-16.251325-155.860767 52.548208-177.354454 153.668059-21.493688 101.119851 23.062452 196.267988 99.518925 212.519313z"/><path d="m505.249654 874.185613c67.577657 14.364074 137.999342-47.568059 157.291238-138.329291 19.291895-90.761231-19.851448-175.98213-87.429105-190.346204-67.577656-14.364074-137.999341 47.568058-157.291237 138.32929-19.291895 90.761232 19.851448 175.982131 87.429104 190.346205z"/><path d="m339.180209 35.7143356c-14.510944 0-13.117114 9.0404886-8.729865 14.3715632 10.86696 13.2047598 33.867494 44.0838395 36.504984 53.4109652 3.702307 13.092709-20.107319 189.170213-24.04576 376.650617-3.938441 187.480403-56.532895 377.225176 89.578357 439.566855"/></g></g></svg>