<svg xmlns="http://www.w3.org/2000/svg" width="40.861" height="44" viewBox="0 0 40.861 44">
  <g id="Logo" transform="translate(-212.323 -72.305)">
    <path id="Path_3" data-name="Path 3" d="M315.008,72.3V84.227a4.009,4.009,0,0,0,.331,1.621,4.262,4.262,0,0,0,2.237,2.237,4.073,4.073,0,0,0,3.237-.007,4.268,4.268,0,0,0,1.333-.91,4.337,4.337,0,0,0,.9-1.334,3.969,3.969,0,0,0,.332-1.607V72.3h5.685V84.227a9.8,9.8,0,0,1-.367,2.708,9.516,9.516,0,0,1-1.036,2.377,10.057,10.057,0,0,1-1.588,1.983,9.88,9.88,0,0,1-6.885,2.794,9.65,9.65,0,0,1-2.553-.34,10.049,10.049,0,0,1-2.335-.959,9.871,9.871,0,0,1-2.01-1.51,9.649,9.649,0,0,1-1.573-1.981,9.831,9.831,0,0,1-1.39-5.072V72.3Z" transform="translate(-75.876 0)" fill="#221f20"/>
    <path id="Path_4" data-name="Path 4" d="M218.008,174.017v8.692a4.013,4.013,0,0,0,.332,1.621,4.264,4.264,0,0,0,2.236,2.237,4.078,4.078,0,0,0,3.237-.008,4.252,4.252,0,0,0,1.334-.91,4.341,4.341,0,0,0,.9-1.333,3.986,3.986,0,0,0,.332-1.608v-8.692h5.685v8.692a9.826,9.826,0,0,1-.366,2.708,9.56,9.56,0,0,1-1.038,2.378,10.011,10.011,0,0,1-1.587,1.981,9.9,9.9,0,0,1-2.01,1.51,9.91,9.91,0,0,1-4.874,1.285,9.66,9.66,0,0,1-2.554-.339,10,10,0,0,1-2.335-.959,9.891,9.891,0,0,1-2.01-1.51,9.677,9.677,0,0,1-1.574-1.981,9.839,9.839,0,0,1-1.389-5.072v-8.692Z" transform="translate(0 -79.563)" fill="#221f20"/>
    <path id="Path_5" data-name="Path 5" d="M349.721,252.977l-.047-.108c-.07-.151-.8-1.258-.8-1.258L348,250.245l-.874,1.365s-.734,1.107-.8,1.258l-.046.108a1.85,1.85,0,1,0,3.574.67,1.861,1.861,0,0,0-.125-.67" transform="translate(-104.681 -139.192)" fill="#bfe4d8"/>
    <path id="Path_1" data-name="Path 1" d="M218.036,72.305V79.8h8.3V72.305h5.728V93.167h-5.728V85.3h-8.3v7.866h-5.713V72.305Z" transform="translate(-0.001 0)" fill="#221f20"/>
    <path id="Path_2" data-name="Path 2" d="M310.3,180.965V159.181l9.664,9.763,9.651-9.763v21.784h-5.686v-7.943l-3.965,4.656-3.978-4.656v7.943Z" transform="translate(-76.637 -67.958)" fill="#221f20"/>
  </g>
</svg>
