<?xml version="1.0" encoding="utf-8"?>
<!-- Generator: Adobe Illustrator 25.3.1, SVG Export Plug-In . SVG Version: 6.00 Build 0)  -->
<svg version="1.1" id="Layer_1" xmlns="http://www.w3.org/2000/svg" xmlns:xlink="http://www.w3.org/1999/xlink" x="0px" y="0px"
	 viewBox="0 0 11.4 16.7" style="enable-background:new 0 0 11.4 16.7;" xml:space="preserve">
<style type="text/css">
	.st0{fill-rule:evenodd;clip-rule:evenodd;}
</style>
<g transform="translate(0 -270.54)">
	<path class="st0" d="M0.7,285.1h0.2c0.3-2.8,1.6-4.7,3.3-6.2c-1.7-0.6-2.7-3.2-3.4-6.2H0.7c-0.4,0-0.7-0.3-0.7-0.7v-0.7
		c0-0.4,0.3-0.7,0.7-0.7h10c0.4,0,0.7,0.3,0.7,0.7v0.7c0,0.4-0.3,0.7-0.7,0.7c-0.6,3-1.7,5.6-3.4,6.2c1.7,1.5,3,3.4,3.3,6.2h0
		c0.4,0,0.7,0.3,0.7,0.7v0.7c0,0.4-0.3,0.7-0.7,0.7h-10c-0.4,0-0.7-0.3-0.7-0.7v-0.7C0,285.4,0.3,285.1,0.7,285.1L0.7,285.1z
		 M9.7,284.7c-2.2-3.4-5.3-3.8-7.8-0.2c0.4-2.6,1.6-4.5,3.7-5.6c-2-0.6-3.3-2.8-4-6.2h8.3c-0.7,3.5-1.9,5.6-4,6.2
		C8.1,280.1,9.3,282.1,9.7,284.7L9.7,284.7z"/>
	<path class="st0" d="M3.3,276.1l5,0C7,278.7,4.8,279,3.3,276.1z"/>
</g>
</svg>
