<?xml version="1.0" encoding="UTF-8"?>
<svg width="600px" height="600px" viewBox="0 0 600 600" version="1.1" xmlns="http://www.w3.org/2000/svg" xmlns:xlink="http://www.w3.org/1999/xlink">
    <title>assets/icon</title>
    <g id="/assets/icon" stroke="none" stroke-width="1" fill="none" fill-rule="evenodd">
        <g id="logo" transform="translate(22.000000, 0.000000)" fill-rule="nonzero">
            <path d="M365.441251,0 L365.441251,162.573654 C365.392556,170.172376 366.929012,177.697733 369.952482,184.669059 C375.827386,198.368581 386.742886,209.285385 400.440772,215.16099 C414.528288,221.225903 430.497002,221.191367 444.558159,215.065575 C451.347711,212.124163 457.513806,207.914248 462.725745,202.661616 C467.912851,197.418836 472.073181,191.251566 474.991933,184.478229 C478.009414,177.571654 479.550635,170.110696 479.516793,162.573654 L479.516793,0 L557,0 L557,162.573654 C557.062814,175.050904 555.379156,187.475674 551.996331,199.485657 C548.789934,210.879461 544.039261,221.780714 537.876586,231.88589 C531.833681,241.774548 524.561338,250.856902 516.23358,258.915617 C491.101168,283.337988 457.439335,297 422.397247,297 C410.643934,297.016899 398.941369,295.458204 387.602163,292.365415 C376.486975,289.363242 365.794658,284.971312 355.778221,279.29355 C345.80691,273.628516 336.600769,266.711634 328.383736,258.711156 C320.083719,250.690219 312.875604,241.611401 306.945166,231.70869 C294.470024,210.811858 287.920865,186.911641 288,162.573654 L288,0 L365.441251,0 Z" id="Path_3" fill="#221F20"></path>
            <path d="M77.4276066,303.013636 L77.4276066,421.536551 C77.3848093,429.138946 78.9258489,436.666853 81.9524674,443.640284 C87.8264744,457.340865 98.7359743,468.26066 112.427132,474.143707 C126.518197,480.198411 142.483543,480.158934 156.544524,474.034621 C163.341533,471.098335 169.513218,466.886175 174.725741,461.625986 C179.910446,456.384462 184.070567,450.219802 186.99193,443.449381 C190.004758,436.533927 191.545732,429.066708 191.516791,421.522915 L191.516791,303 L269,303 L269,421.522915 C269.062606,434.003924 267.383624,446.432721 264.009966,458.44883 C260.789086,469.850528 256.029592,480.759674 249.862962,490.874911 C243.827939,500.760833 236.559738,509.837992 228.233582,517.887554 C220.013738,525.887763 210.808036,532.806921 200.839094,538.477706 C180.575911,549.948997 157.692972,555.984937 134.410868,556 C122.653712,556.020855 110.946709,554.466178 99.60215,551.377231 C88.4846648,548.380709 77.791512,543.98678 67.7782049,538.30044 C57.8085284,532.630774 48.6026909,525.711514 40.3837167,517.710287 C32.0821753,509.684201 24.8698078,500.602378 18.9315156,490.697644 C6.46624492,469.78939 -0.0777837411,445.881697 0,421.536551 L0,303.013636 L77.4276066,303.013636 Z" id="Path_4" fill="#221F20"></path>
            <path d="M445.202728,565.452381 L444.567603,563.971833 C443.621672,561.901808 433.756966,546.726191 433.756966,546.726191 L421.946345,528 L410.135725,546.712482 C410.135725,546.712482 400.216966,561.888099 399.325088,563.958124 L398.703477,565.438672 C395.058723,574.937738 397.374186,585.727413 404.581596,592.82974 C411.789005,599.932067 422.487581,601.966689 431.741396,597.994906 C440.995211,594.023123 447.005759,584.816863 447,574.623554 C446.999096,571.482544 446.42644,568.368707 445.310834,565.438672" id="Path_5" fill="#BFE4D8"></path>
            <polygon id="Path_1" fill="#221F20" points="77.8479814 0 77.8479814 102.39071 190.947622 102.39071 190.947622 0 269 0 269 285 190.947622 285 190.947622 177.527322 77.8479814 177.527322 77.8479814 284.986339 0 284.986339 0 0"></polygon>
            <polygon id="Path_2" fill="#221F20" points="290 555 290 258 422.088843 391.107372 554 258 554 555 476.282992 555 476.282992 446.706252 422.088843 510.185503 367.717008 446.706252 367.717008 555"></polygon>
        </g>
    </g>
</svg>